<svg width="160" height="167" viewBox="0 0 160 167" fill="none" xmlns="http://www.w3.org/2000/svg">
<rect y="4" width="160" height="158" rx="32" fill="#FD0808"/>
<path d="M115.928 81.408C121.592 88.128 124.424 95.664 124.424 104.016C124.232 113.616 120.92 121.68 114.488 128.208C108.152 134.64 100.424 137.856 91.304 137.856H53.432C46.712 137.856 42.776 136.032 41.624 132.384C41.048 130.752 40.76 128.256 40.76 124.896V44.976C40.76 42.672 40.808 40.992 40.904 39.936C41.096 38.88 41.576 37.632 42.344 36.192C43.688 33.6 47.432 32.304 53.576 32.304H89.864C98.696 32.304 106.088 35.376 112.04 41.52C118.28 47.76 121.4 55.248 121.4 63.984C121.4 70.32 119.576 76.128 115.928 81.408ZM98.936 102.576C98.936 100.272 98.648 98.448 98.072 97.104C97.592 95.76 96.728 94.8 95.48 94.224C93.56 93.456 90.872 93.072 87.416 93.072C83.96 93.072 81.368 92.4 79.64 91.056C77.912 89.712 77.048 86.976 77.048 82.848C77.048 78.624 77.912 75.84 79.64 74.496C81.464 73.152 84.44 72.48 88.568 72.48C92.408 72.48 94.712 71.472 95.48 69.456C95.768 68.4 95.912 66.672 95.912 64.272C95.912 61.872 95.096 60.192 93.464 59.232C91.928 58.272 89.576 57.792 86.408 57.792H66.248V112.368H89.864C95.912 112.368 98.936 109.104 98.936 102.576Z" fill="white"/>
</svg>
